<mxfile host="Electron" modified="2024-01-18T17:01:29.739Z" agent="Mozilla/5.0 (X11; Linux x86_64) AppleWebKit/537.36 (KHTML, like Gecko) draw.io/22.1.16 Chrome/120.0.6099.109 Electron/28.1.0 Safari/537.36" etag="h6-FR47664KsYzx_y5pb" version="22.1.16" type="device">
  <diagram name="PÃ¡gina-1" id="O7MBfEGZBoNdr1yW5oVu">
    <mxGraphModel dx="1195" dy="756" grid="0" gridSize="10" guides="1" tooltips="1" connect="1" arrows="1" fold="1" page="1" pageScale="1" pageWidth="827" pageHeight="1169" math="0" shadow="0">
      <root>
        <mxCell id="0" />
        <mxCell id="1" parent="0" />
        <mxCell id="dsQSa4Hj2Oxl42e2wI1B-21" value="" style="edgeStyle=orthogonalEdgeStyle;shape=connector;curved=0;rounded=1;orthogonalLoop=1;jettySize=auto;html=1;labelBackgroundColor=default;strokeColor=#666666;strokeWidth=3;align=center;verticalAlign=middle;fontFamily=Helvetica;fontSize=12;fontColor=#666666;endArrow=openThin;endFill=0;fillColor=#FAE5C7;exitX=1;exitY=0.5;exitDx=0;exitDy=0;" parent="1" source="dsQSa4Hj2Oxl42e2wI1B-12" target="dsQSa4Hj2Oxl42e2wI1B-24" edge="1">
          <mxGeometry relative="1" as="geometry">
            <mxPoint x="656" y="796" as="targetPoint" />
            <Array as="points">
              <mxPoint x="625" y="751" />
              <mxPoint x="625" y="796" />
            </Array>
          </mxGeometry>
        </mxCell>
        <mxCell id="dsQSa4Hj2Oxl42e2wI1B-26" style="edgeStyle=orthogonalEdgeStyle;shape=connector;curved=0;rounded=1;orthogonalLoop=1;jettySize=auto;html=1;exitX=1;exitY=0.5;exitDx=0;exitDy=0;entryX=0;entryY=0.5;entryDx=0;entryDy=0;labelBackgroundColor=default;strokeColor=#666666;strokeWidth=3;align=center;verticalAlign=middle;fontFamily=Helvetica;fontSize=12;fontColor=#666666;endArrow=openThin;endFill=0;fillColor=#FAE5C7;" parent="1" source="dsQSa4Hj2Oxl42e2wI1B-12" target="dsQSa4Hj2Oxl42e2wI1B-25" edge="1">
          <mxGeometry relative="1" as="geometry" />
        </mxCell>
        <mxCell id="dsQSa4Hj2Oxl42e2wI1B-12" value="Is it &lt;br&gt;running?" style="rhombus;whiteSpace=wrap;html=1;rounded=0;strokeColor=#666666;strokeWidth=3;align=center;verticalAlign=middle;fontFamily=Helvetica;fontSize=11;fontColor=#666666;fillColor=#FFFFFF;spacingTop=-7;" parent="1" vertex="1">
          <mxGeometry x="533.23" y="725.38" width="74.27" height="50.5" as="geometry" />
        </mxCell>
        <mxCell id="24-RcjtqaWTgur0IXHR3-46" style="edgeStyle=orthogonalEdgeStyle;shape=connector;curved=0;rounded=1;orthogonalLoop=1;jettySize=auto;html=1;labelBackgroundColor=default;strokeColor=#666666;strokeWidth=3;align=center;verticalAlign=middle;fontFamily=Helvetica;fontSize=12;fontColor=#666666;endArrow=openThin;endFill=0;fillColor=#FAE5C7;" parent="1" source="24-RcjtqaWTgur0IXHR3-42" target="24-RcjtqaWTgur0IXHR3-45" edge="1">
          <mxGeometry relative="1" as="geometry" />
        </mxCell>
        <mxCell id="24-RcjtqaWTgur0IXHR3-42" value="Deserialize RestartOrder" style="rounded=1;whiteSpace=wrap;html=1;strokeColor=#666666;fontColor=#666666;fillColor=#FFFFFF;strokeWidth=3;" parent="1" vertex="1">
          <mxGeometry x="238.57" y="600" width="120" height="39" as="geometry" />
        </mxCell>
        <mxCell id="24-RcjtqaWTgur0IXHR3-44" style="edgeStyle=orthogonalEdgeStyle;shape=connector;curved=0;rounded=1;orthogonalLoop=1;jettySize=auto;html=1;labelBackgroundColor=default;strokeColor=#666666;strokeWidth=3;align=center;verticalAlign=middle;fontFamily=Helvetica;fontSize=12;fontColor=#666666;endArrow=openThin;endFill=0;fillColor=#FAE5C7;" parent="1" source="24-RcjtqaWTgur0IXHR3-43" target="24-RcjtqaWTgur0IXHR3-42" edge="1">
          <mxGeometry relative="1" as="geometry" />
        </mxCell>
        <mxCell id="24-RcjtqaWTgur0IXHR3-43" value="Start" style="ellipse;whiteSpace=wrap;html=1;aspect=fixed;strokeColor=#666666;fontColor=#666666;fillColor=#FFFFFF;strokeWidth=3;" parent="1" vertex="1">
          <mxGeometry x="153.57" y="594.5" width="50" height="50" as="geometry" />
        </mxCell>
        <mxCell id="24-RcjtqaWTgur0IXHR3-48" style="edgeStyle=orthogonalEdgeStyle;shape=connector;curved=0;rounded=1;orthogonalLoop=1;jettySize=auto;html=1;labelBackgroundColor=default;strokeColor=#666666;strokeWidth=3;align=center;verticalAlign=middle;fontFamily=Helvetica;fontSize=12;fontColor=#666666;endArrow=openThin;endFill=0;fillColor=#FAE5C7;" parent="1" source="24-RcjtqaWTgur0IXHR3-45" target="24-RcjtqaWTgur0IXHR3-47" edge="1">
          <mxGeometry relative="1" as="geometry" />
        </mxCell>
        <mxCell id="24-RcjtqaWTgur0IXHR3-45" value="Get UUID" style="rounded=1;whiteSpace=wrap;html=1;strokeColor=#666666;fontColor=#666666;fillColor=#FFFFFF;strokeWidth=3;" parent="1" vertex="1">
          <mxGeometry x="237.5" y="663" width="122.15" height="29" as="geometry" />
        </mxCell>
        <mxCell id="24-RcjtqaWTgur0IXHR3-58" style="edgeStyle=orthogonalEdgeStyle;shape=connector;curved=0;rounded=1;orthogonalLoop=1;jettySize=auto;html=1;labelBackgroundColor=default;strokeColor=#666666;strokeWidth=3;align=center;verticalAlign=middle;fontFamily=Helvetica;fontSize=12;fontColor=#666666;endArrow=openThin;endFill=0;fillColor=#FAE5C7;" parent="1" source="24-RcjtqaWTgur0IXHR3-47" target="24-RcjtqaWTgur0IXHR3-57" edge="1">
          <mxGeometry relative="1" as="geometry" />
        </mxCell>
        <mxCell id="dsQSa4Hj2Oxl42e2wI1B-14" style="edgeStyle=orthogonalEdgeStyle;shape=connector;curved=0;rounded=1;orthogonalLoop=1;jettySize=auto;html=1;exitX=0.5;exitY=1;exitDx=0;exitDy=0;entryX=0;entryY=0.5;entryDx=0;entryDy=0;labelBackgroundColor=default;strokeColor=#666666;strokeWidth=3;align=center;verticalAlign=middle;fontFamily=Helvetica;fontSize=12;fontColor=#666666;endArrow=openThin;endFill=0;fillColor=#FAE5C7;" parent="1" source="24-RcjtqaWTgur0IXHR3-47" target="24-RcjtqaWTgur0IXHR3-50" edge="1">
          <mxGeometry relative="1" as="geometry" />
        </mxCell>
        <mxCell id="24-RcjtqaWTgur0IXHR3-47" value="Is UUID in the register?" style="rhombus;whiteSpace=wrap;html=1;rounded=0;strokeColor=#666666;strokeWidth=3;align=center;verticalAlign=middle;fontFamily=Helvetica;fontSize=11;fontColor=#666666;fillColor=#FFFFFF;spacingTop=5;" parent="1" vertex="1">
          <mxGeometry x="244.94" y="730.75" width="107.27" height="66" as="geometry" />
        </mxCell>
        <mxCell id="dsQSa4Hj2Oxl42e2wI1B-11" style="edgeStyle=orthogonalEdgeStyle;shape=connector;curved=0;rounded=1;orthogonalLoop=1;jettySize=auto;html=1;labelBackgroundColor=default;strokeColor=#666666;strokeWidth=3;align=center;verticalAlign=middle;fontFamily=Helvetica;fontSize=12;fontColor=#666666;endArrow=openThin;endFill=0;fillColor=#FAE5C7;entryX=0.5;entryY=1;entryDx=0;entryDy=0;" parent="1" source="24-RcjtqaWTgur0IXHR3-50" target="dsQSa4Hj2Oxl42e2wI1B-12" edge="1">
          <mxGeometry relative="1" as="geometry">
            <mxPoint x="600.3600000000001" y="766" as="targetPoint" />
            <Array as="points">
              <mxPoint x="570" y="822" />
            </Array>
          </mxGeometry>
        </mxCell>
        <mxCell id="24-RcjtqaWTgur0IXHR3-50" value="Get container Id" style="rounded=1;whiteSpace=wrap;html=1;strokeColor=#666666;fontColor=#666666;fillColor=#FFFFFF;strokeWidth=3;" parent="1" vertex="1">
          <mxGeometry x="406.005" y="809.5" width="100.72" height="25" as="geometry" />
        </mxCell>
        <mxCell id="24-RcjtqaWTgur0IXHR3-54" value="End" style="ellipse;whiteSpace=wrap;html=1;aspect=fixed;strokeColor=#666666;fontColor=#666666;fillColor=#FFFFFF;strokeWidth=3;" parent="1" vertex="1">
          <mxGeometry x="598.63" y="594" width="50" height="50" as="geometry" />
        </mxCell>
        <mxCell id="dsQSa4Hj2Oxl42e2wI1B-7" style="edgeStyle=orthogonalEdgeStyle;shape=connector;curved=0;rounded=1;orthogonalLoop=1;jettySize=auto;html=1;labelBackgroundColor=default;strokeColor=#666666;strokeWidth=3;align=center;verticalAlign=middle;fontFamily=Helvetica;fontSize=12;fontColor=#666666;endArrow=openThin;endFill=0;fillColor=#FAE5C7;" parent="1" source="24-RcjtqaWTgur0IXHR3-57" target="24-RcjtqaWTgur0IXHR3-59" edge="1">
          <mxGeometry relative="1" as="geometry" />
        </mxCell>
        <mxCell id="24-RcjtqaWTgur0IXHR3-57" value="Search for container in network using info from the QueryType" style="rounded=1;whiteSpace=wrap;html=1;strokeColor=#666666;fontColor=#666666;fillColor=#FFFFFF;strokeWidth=3;" parent="1" vertex="1">
          <mxGeometry x="398.64" y="729" width="115.45" height="69.5" as="geometry" />
        </mxCell>
        <mxCell id="dsQSa4Hj2Oxl42e2wI1B-22" style="edgeStyle=orthogonalEdgeStyle;shape=connector;curved=0;rounded=1;orthogonalLoop=1;jettySize=auto;html=1;exitX=0.5;exitY=0;exitDx=0;exitDy=0;entryX=0.5;entryY=1;entryDx=0;entryDy=0;labelBackgroundColor=default;strokeColor=#666666;strokeWidth=3;align=center;verticalAlign=middle;fontFamily=Helvetica;fontSize=12;fontColor=#666666;endArrow=openThin;endFill=0;fillColor=#FAE5C7;" parent="1" source="24-RcjtqaWTgur0IXHR3-59" target="dsQSa4Hj2Oxl42e2wI1B-3" edge="1">
          <mxGeometry relative="1" as="geometry" />
        </mxCell>
        <mxCell id="24-RcjtqaWTgur0IXHR3-59" value="Container &lt;br&gt;found?" style="rhombus;whiteSpace=wrap;html=1;rounded=0;strokeColor=#666666;strokeWidth=3;align=center;verticalAlign=middle;fontFamily=Helvetica;fontSize=11;fontColor=#666666;fillColor=#FFFFFF;spacingTop=4;" parent="1" vertex="1">
          <mxGeometry x="414.23" y="658" width="84.27" height="50.5" as="geometry" />
        </mxCell>
        <mxCell id="dsQSa4Hj2Oxl42e2wI1B-1" value="No" style="text;html=1;strokeColor=none;fillColor=none;align=center;verticalAlign=middle;whiteSpace=wrap;rounded=0;fontColor=#666666;" parent="1" vertex="1">
          <mxGeometry x="332.55" y="731" width="60" height="30" as="geometry" />
        </mxCell>
        <mxCell id="dsQSa4Hj2Oxl42e2wI1B-2" value="Yes" style="text;html=1;strokeColor=none;fillColor=none;align=center;verticalAlign=middle;whiteSpace=wrap;rounded=0;fontColor=#666666;" parent="1" vertex="1">
          <mxGeometry x="299.55" y="786.5" width="33" height="30" as="geometry" />
        </mxCell>
        <mxCell id="dsQSa4Hj2Oxl42e2wI1B-5" style="edgeStyle=orthogonalEdgeStyle;shape=connector;curved=0;rounded=1;orthogonalLoop=1;jettySize=auto;html=1;labelBackgroundColor=default;strokeColor=#666666;strokeWidth=3;align=center;verticalAlign=middle;fontFamily=Helvetica;fontSize=12;fontColor=#666666;endArrow=openThin;endFill=0;fillColor=#FAE5C7;" parent="1" source="dsQSa4Hj2Oxl42e2wI1B-3" target="24-RcjtqaWTgur0IXHR3-54" edge="1">
          <mxGeometry relative="1" as="geometry" />
        </mxCell>
        <mxCell id="dsQSa4Hj2Oxl42e2wI1B-3" value="Return &lt;br&gt;404 Not Found&amp;nbsp;" style="rounded=1;whiteSpace=wrap;html=1;strokeColor=#666666;fontColor=#666666;fillColor=#FFFFFF;strokeWidth=3;" parent="1" vertex="1">
          <mxGeometry x="406.01" y="599" width="100.72" height="40" as="geometry" />
        </mxCell>
        <mxCell id="dsQSa4Hj2Oxl42e2wI1B-9" value="No" style="text;html=1;strokeColor=none;fillColor=none;align=center;verticalAlign=middle;whiteSpace=wrap;rounded=0;fontColor=#666666;" parent="1" vertex="1">
          <mxGeometry x="461" y="639" width="28.73" height="30" as="geometry" />
        </mxCell>
        <mxCell id="dsQSa4Hj2Oxl42e2wI1B-19" value="" style="edgeStyle=orthogonalEdgeStyle;shape=connector;curved=0;rounded=1;orthogonalLoop=1;jettySize=auto;html=1;labelBackgroundColor=default;strokeColor=#666666;strokeWidth=3;align=center;verticalAlign=middle;fontFamily=Helvetica;fontSize=12;fontColor=#666666;endArrow=openThin;endFill=0;fillColor=#FAE5C7;entryX=0;entryY=0.5;entryDx=0;entryDy=0;" parent="1" source="24-RcjtqaWTgur0IXHR3-59" target="dsQSa4Hj2Oxl42e2wI1B-18" edge="1">
          <mxGeometry relative="1" as="geometry">
            <mxPoint x="510" y="683" as="sourcePoint" />
            <mxPoint x="570" y="754" as="targetPoint" />
            <Array as="points" />
          </mxGeometry>
        </mxCell>
        <mxCell id="dsQSa4Hj2Oxl42e2wI1B-23" style="edgeStyle=orthogonalEdgeStyle;shape=connector;curved=0;rounded=1;orthogonalLoop=1;jettySize=auto;html=1;exitX=0.5;exitY=1;exitDx=0;exitDy=0;entryX=0.5;entryY=0;entryDx=0;entryDy=0;labelBackgroundColor=default;strokeColor=#666666;strokeWidth=3;align=center;verticalAlign=middle;fontFamily=Helvetica;fontSize=12;fontColor=#666666;endArrow=openThin;endFill=0;fillColor=#FAE5C7;" parent="1" source="dsQSa4Hj2Oxl42e2wI1B-18" target="dsQSa4Hj2Oxl42e2wI1B-12" edge="1">
          <mxGeometry relative="1" as="geometry" />
        </mxCell>
        <mxCell id="dsQSa4Hj2Oxl42e2wI1B-18" value="Add container to the register" style="rounded=1;whiteSpace=wrap;html=1;strokeColor=#666666;fontColor=#666666;fillColor=#FFFFFF;strokeWidth=3;" parent="1" vertex="1">
          <mxGeometry x="520" y="663.63" width="100.72" height="39.25" as="geometry" />
        </mxCell>
        <mxCell id="dsQSa4Hj2Oxl42e2wI1B-28" style="edgeStyle=orthogonalEdgeStyle;shape=connector;curved=0;rounded=1;orthogonalLoop=1;jettySize=auto;html=1;exitX=1;exitY=0.5;exitDx=0;exitDy=0;entryX=0.5;entryY=1;entryDx=0;entryDy=0;labelBackgroundColor=default;strokeColor=#666666;strokeWidth=3;align=center;verticalAlign=middle;fontFamily=Helvetica;fontSize=12;fontColor=#666666;endArrow=openThin;endFill=0;fillColor=#FAE5C7;" parent="1" source="dsQSa4Hj2Oxl42e2wI1B-24" target="dsQSa4Hj2Oxl42e2wI1B-29" edge="1">
          <mxGeometry relative="1" as="geometry">
            <Array as="points">
              <mxPoint x="725" y="797" />
              <mxPoint x="756" y="797" />
              <mxPoint x="756" y="709" />
              <mxPoint x="737" y="709" />
            </Array>
          </mxGeometry>
        </mxCell>
        <mxCell id="dsQSa4Hj2Oxl42e2wI1B-24" value="Send start signal" style="rounded=1;whiteSpace=wrap;html=1;strokeColor=#666666;fontColor=#666666;fillColor=#FFFFFF;strokeWidth=3;" parent="1" vertex="1">
          <mxGeometry x="664" y="775.88" width="61" height="39.25" as="geometry" />
        </mxCell>
        <mxCell id="dsQSa4Hj2Oxl42e2wI1B-27" style="edgeStyle=orthogonalEdgeStyle;shape=connector;curved=0;rounded=1;orthogonalLoop=1;jettySize=auto;html=1;entryX=0.5;entryY=1;entryDx=0;entryDy=0;labelBackgroundColor=default;strokeColor=#666666;strokeWidth=3;align=center;verticalAlign=middle;fontFamily=Helvetica;fontSize=12;fontColor=#666666;endArrow=openThin;endFill=0;fillColor=#FAE5C7;exitX=0.5;exitY=0;exitDx=0;exitDy=0;" parent="1" source="dsQSa4Hj2Oxl42e2wI1B-25" target="dsQSa4Hj2Oxl42e2wI1B-29" edge="1">
          <mxGeometry relative="1" as="geometry">
            <Array as="points">
              <mxPoint x="695" y="709" />
              <mxPoint x="737" y="709" />
            </Array>
          </mxGeometry>
        </mxCell>
        <mxCell id="dsQSa4Hj2Oxl42e2wI1B-25" value="Send restart signal" style="rounded=1;whiteSpace=wrap;html=1;strokeColor=#666666;fontColor=#666666;fillColor=#FFFFFF;strokeWidth=3;" parent="1" vertex="1">
          <mxGeometry x="656" y="731" width="77" height="39.25" as="geometry" />
        </mxCell>
        <mxCell id="dsQSa4Hj2Oxl42e2wI1B-30" style="edgeStyle=orthogonalEdgeStyle;shape=connector;curved=0;rounded=1;orthogonalLoop=1;jettySize=auto;html=1;entryX=1;entryY=0.5;entryDx=0;entryDy=0;labelBackgroundColor=default;strokeColor=#666666;strokeWidth=3;align=center;verticalAlign=middle;fontFamily=Helvetica;fontSize=12;fontColor=#666666;endArrow=openThin;endFill=0;fillColor=#FAE5C7;exitX=0.5;exitY=0;exitDx=0;exitDy=0;" parent="1" source="dsQSa4Hj2Oxl42e2wI1B-29" target="24-RcjtqaWTgur0IXHR3-54" edge="1">
          <mxGeometry relative="1" as="geometry" />
        </mxCell>
        <mxCell id="dsQSa4Hj2Oxl42e2wI1B-29" value="Return &lt;br&gt;200 OK" style="rounded=1;whiteSpace=wrap;html=1;strokeColor=#666666;fontColor=#666666;fillColor=#FFFFFF;strokeWidth=3;" parent="1" vertex="1">
          <mxGeometry x="687" y="650" width="100.72" height="40" as="geometry" />
        </mxCell>
        <mxCell id="dsQSa4Hj2Oxl42e2wI1B-31" value="No" style="text;html=1;strokeColor=none;fillColor=none;align=center;verticalAlign=middle;whiteSpace=wrap;rounded=0;fontColor=#666666;" parent="1" vertex="1">
          <mxGeometry x="612" y="773" width="60" height="30" as="geometry" />
        </mxCell>
        <mxCell id="dsQSa4Hj2Oxl42e2wI1B-32" value="Yes" style="text;html=1;strokeColor=none;fillColor=none;align=center;verticalAlign=middle;whiteSpace=wrap;rounded=0;fontColor=#666666;" parent="1" vertex="1">
          <mxGeometry x="607.5" y="725.38" width="60" height="30" as="geometry" />
        </mxCell>
      </root>
    </mxGraphModel>
  </diagram>
</mxfile>
